<?xml version="1.0" encoding="UTF-8" standalone="no"?>
<svg
   xmlns:dc="http://purl.org/dc/elements/1.1/"
   xmlns:cc="http://creativecommons.org/ns#"
   xmlns:rdf="http://www.w3.org/1999/02/22-rdf-syntax-ns#"
   xmlns:svg="http://www.w3.org/2000/svg"
   xmlns="http://www.w3.org/2000/svg"
   xmlns:sodipodi="http://sodipodi.sourceforge.net/DTD/sodipodi-0.dtd"
   xmlns:inkscape="http://www.inkscape.org/namespaces/inkscape"
   width="1920"
   height="1080"
   viewBox="0 0 508 285.75001"
   version="1.1"
   id="svg8"
   inkscape:version="1.0.1 (3bc2e813f5, 2020-09-07)"
   sodipodi:docname="boardwalk.svg">
  <defs
     id="defs2" />
  <sodipodi:namedview
     id="base"
     pagecolor="#ffffff"
     bordercolor="#666666"
     borderopacity="1.0"
     inkscape:pageopacity="0.0"
     inkscape:pageshadow="2"
     inkscape:zoom="3.959798"
     inkscape:cx="1421.6198"
     inkscape:cy="817.48793"
     inkscape:document-units="mm"
     inkscape:current-layer="svg8"
     inkscape:document-rotation="0"
     showgrid="false"
     inkscape:pagecheckerboard="true"
     inkscape:window-width="1920"
     inkscape:window-height="1017"
     inkscape:window-x="-8"
     inkscape:window-y="-8"
     inkscape:window-maximized="1"
     units="px" />
  <metadata
     id="metadata5">
    <rdf:RDF>
      <cc:Work
         rdf:about="">
        <dc:format>image/svg+xml</dc:format>
        <dc:type
           rdf:resource="http://purl.org/dc/dcmitype/StillImage" />
        <dc:title></dc:title>
      </cc:Work>
    </rdf:RDF>
  </metadata>
  <path
     id="rect1003"
     style="display:inline;fill:#6c5353;fill-opacity:1;fill-rule:evenodd;stroke-width:0.0621529;stroke-linecap:round;stroke-linejoin:round"
     d="m 376.83531,219.65154 v 2.96917 h -28.03002 v -2.96917 z" />
  <path
     id="rect1001"
     style="display:inline;fill:#6c5353;fill-opacity:1;fill-rule:evenodd;stroke-width:0.0693894;stroke-linecap:round;stroke-linejoin:round"
     d="m 372.41018,218.11748 h 2.9692 v 34.93727 h -2.9692 z" />
  <path
     id="rect999"
     style="display:inline;fill:#6c5353;fill-opacity:1;fill-rule:evenodd;stroke-width:0.0693894;stroke-linecap:round;stroke-linejoin:round"
     d="m 350.24039,218.11748 h 2.96918 v 34.93727 h -2.96918 z" />
  <path
     id="rect1009"
     style="display:inline;fill:#2f2823;fill-opacity:1;fill-rule:evenodd;stroke-width:0.01876;stroke-linecap:round;stroke-linejoin:round"
     d="m 352.27784,221.33365 h 20.98211 v 4.4273 h -20.98211 z" />
  <path
     id="rect997"
     style="display:inline;fill:#2f2823;fill-opacity:1;fill-rule:evenodd;stroke-width:0.0357129;stroke-linecap:round;stroke-linejoin:round"
     d="m 352.41782,237.01007 h 20.98211 v 16.04467 h -20.98211 z" />
  <path
     id="rect995"
     style="display:inline;fill:#2f2823;fill-opacity:1;fill-rule:evenodd;stroke-width:0.0735358;stroke-linecap:round;stroke-linejoin:round"
     d="m 513.38822,259.7609 h 4.75067 v 28.89997 h -4.75067 z" />
  <path
     id="rect989"
     style="display:inline;fill:#2f2823;fill-opacity:1;fill-rule:evenodd;stroke-width:0.0735358;stroke-linecap:round;stroke-linejoin:round"
     d="m 489.6348,259.76092 h 4.75068 v 28.89995 h -4.75068 z" />
  <path
     id="rect993"
     style="display:inline;fill:#6c5353;fill-opacity:1;fill-rule:evenodd;stroke-width:0.313022;stroke-linecap:round;stroke-linejoin:round"
     d="m 494.38548,259.76092 20.40518,27.87324 -1.40249,1.02671 -20.40517,-27.87325 z" />
  <path
     id="rect991"
     style="display:inline;fill:#6c5353;fill-opacity:1;fill-rule:evenodd;stroke-width:0.313022;stroke-linecap:round;stroke-linejoin:round"
     d="m 513.38822,259.76093 -20.40516,27.87327 1.40248,1.0267 20.40517,-27.87326 z" />
  <path
     id="rect983"
     style="display:inline;fill:#2f2823;fill-opacity:1;fill-rule:evenodd;stroke-width:0.0735358;stroke-linecap:round;stroke-linejoin:round"
     d="m 465.88139,259.76093 h 4.75067 v 28.89997 h -4.75067 z" />
  <path
     id="rect987"
     style="display:inline;fill:#6c5353;fill-opacity:1;fill-rule:evenodd;stroke-width:0.313022;stroke-linecap:round;stroke-linejoin:round"
     d="m 470.63205,259.76093 20.40517,27.87326 -1.40247,1.02671 -20.40519,-27.87326 z" />
  <path
     id="rect985"
     style="display:inline;fill:#6c5353;fill-opacity:1;fill-rule:evenodd;stroke-width:0.313022;stroke-linecap:round;stroke-linejoin:round"
     d="m 489.6348,259.76094 -20.40518,27.87326 1.40248,1.02671 20.40518,-27.87326 z" />
  <path
     id="rect977"
     style="display:inline;fill:#2f2823;fill-opacity:1;fill-rule:evenodd;stroke-width:0.0735358;stroke-linecap:round;stroke-linejoin:round"
     d="m 442.12797,259.76094 h 4.75068 v 28.89998 h -4.75068 z" />
  <path
     id="rect981"
     style="display:inline;fill:#6c5353;fill-opacity:1;fill-rule:evenodd;stroke-width:0.313022;stroke-linecap:round;stroke-linejoin:round"
     d="m 446.87864,259.76095 20.40519,27.87326 -1.40249,1.02671 -20.40518,-27.87326 z" />
  <path
     id="rect979"
     style="display:inline;fill:#6c5353;fill-opacity:1;fill-rule:evenodd;stroke-width:0.313022;stroke-linecap:round;stroke-linejoin:round"
     d="m 465.88138,259.76097 -20.40517,27.87326 1.40246,1.02672 20.4052,-27.87328 z" />
  <path
     id="rect971"
     style="display:inline;fill:#2f2823;fill-opacity:1;fill-rule:evenodd;stroke-width:0.0735358;stroke-linecap:round;stroke-linejoin:round"
     d="m 418.37456,259.76094 h 4.75067 v 28.89998 h -4.75067 z" />
  <path
     id="rect975"
     style="display:inline;fill:#6c5353;fill-opacity:1;fill-rule:evenodd;stroke-width:0.313022;stroke-linecap:round;stroke-linejoin:round"
     d="m 423.12523,259.76097 20.40516,27.87326 -1.40246,1.02669 -20.40519,-27.87325 z" />
  <path
     id="rect973"
     style="display:inline;fill:#6c5353;fill-opacity:1;fill-rule:evenodd;stroke-width:0.313022;stroke-linecap:round;stroke-linejoin:round"
     d="m 442.12798,259.76098 -20.40519,27.87327 1.40247,1.02671 20.4052,-27.87326 z" />
  <path
     id="rect965"
     style="display:inline;fill:#2f2823;fill-opacity:1;fill-rule:evenodd;stroke-width:0.0735358;stroke-linecap:round;stroke-linejoin:round"
     d="m 394.62113,259.76093 h 4.75069 v 28.89997 h -4.75069 z" />
  <path
     id="rect969"
     style="display:inline;fill:#6c5353;fill-opacity:1;fill-rule:evenodd;stroke-width:0.313022;stroke-linecap:round;stroke-linejoin:round"
     d="m 399.3718,259.76094 20.40517,27.87326 -1.40246,1.02671 -20.40518,-27.87326 z" />
  <path
     id="rect967"
     style="display:inline;fill:#6c5353;fill-opacity:1;fill-rule:evenodd;stroke-width:0.313022;stroke-linecap:round;stroke-linejoin:round"
     d="m 418.37453,259.76097 -20.40518,27.87326 1.40248,1.0267 20.40518,-27.87326 z" />
  <path
     id="rect959"
     style="display:inline;fill:#2f2823;fill-opacity:1;fill-rule:evenodd;stroke-width:0.0735358;stroke-linecap:round;stroke-linejoin:round"
     d="m 370.8677,259.76092 h 4.75068 v 28.89995 h -4.75068 z" />
  <path
     id="rect963"
     style="display:inline;fill:#6c5353;fill-opacity:1;fill-rule:evenodd;stroke-width:0.313022;stroke-linecap:round;stroke-linejoin:round"
     d="m 375.61838,259.76092 20.40518,27.87324 -1.40248,1.02672 -20.40518,-27.87326 z" />
  <path
     id="rect961"
     style="display:inline;fill:#6c5353;fill-opacity:1;fill-rule:evenodd;stroke-width:0.313022;stroke-linecap:round;stroke-linejoin:round"
     d="m 394.62115,259.76097 -20.40519,27.87327 1.40247,1.02671 20.40518,-27.87328 z" />
  <path
     id="rect953"
     style="display:inline;fill:#2f2823;fill-opacity:1;fill-rule:evenodd;stroke-width:0.0735358;stroke-linecap:round;stroke-linejoin:round"
     d="m 347.11429,259.7609 h 4.75067 v 28.89997 h -4.75067 z" />
  <path
     id="rect957"
     style="display:inline;fill:#6c5353;fill-opacity:1;fill-rule:evenodd;stroke-width:0.313022;stroke-linecap:round;stroke-linejoin:round"
     d="m 351.86496,259.76089 20.40519,27.87327 -1.40248,1.02672 -20.40519,-27.87327 z" />
  <path
     id="rect955"
     style="display:inline;fill:#6c5353;fill-opacity:1;fill-rule:evenodd;stroke-width:0.313022;stroke-linecap:round;stroke-linejoin:round"
     d="m 370.8677,259.76094 -20.40517,27.87326 1.40247,1.02671 20.40518,-27.87326 z" />
  <path
     id="rect947"
     style="display:inline;fill:#2f2823;fill-opacity:1;fill-rule:evenodd;stroke-width:0.0735358;stroke-linecap:round;stroke-linejoin:round"
     d="m 323.36085,259.76089 h 4.7507 v 28.89995 h -4.7507 z" />
  <path
     id="rect951"
     style="display:inline;fill:#6c5353;fill-opacity:1;fill-rule:evenodd;stroke-width:0.313022;stroke-linecap:round;stroke-linejoin:round"
     d="m 328.11155,259.76089 20.40517,27.87326 -1.40247,1.02671 -20.40518,-27.87325 z" />
  <path
     id="rect949"
     style="display:inline;fill:#6c5353;fill-opacity:1;fill-rule:evenodd;stroke-width:0.313022;stroke-linecap:round;stroke-linejoin:round"
     d="m 347.11428,259.76093 -20.40518,27.87326 1.40248,1.02671 20.40519,-27.87326 z" />
  <path
     id="rect939"
     style="display:inline;fill:#2f2823;fill-opacity:1;fill-rule:evenodd;stroke-width:0.0735358;stroke-linecap:round;stroke-linejoin:round"
     d="m 299.60745,259.76089 h 4.75066 v 28.89995 h -4.75066 z" />
  <path
     id="rect945"
     style="display:inline;fill:#6c5353;fill-opacity:1;fill-rule:evenodd;stroke-width:0.313022;stroke-linecap:round;stroke-linejoin:round"
     d="m 304.35811,259.76088 20.40518,27.87324 -1.40247,1.02672 -20.40518,-27.87326 z" />
  <path
     id="rect943"
     style="display:inline;fill:#6c5353;fill-opacity:1;fill-rule:evenodd;stroke-width:0.313022;stroke-linecap:round;stroke-linejoin:round"
     d="m 323.36084,259.7609 -20.40518,27.87326 1.40249,1.02671 20.40517,-27.87326 z" />
  <path
     id="rect919"
     style="display:inline;fill:#2f2823;fill-opacity:1;fill-rule:evenodd;stroke-width:0.0735358;stroke-linecap:round;stroke-linejoin:round"
     d="m 275.85405,259.76089 h 4.75068 v 28.89995 h -4.75068 z" />
  <path
     id="rect937"
     style="display:inline;fill:#6c5353;fill-opacity:1;fill-rule:evenodd;stroke-width:0.313022;stroke-linecap:round;stroke-linejoin:round"
     d="m 280.6047,259.76088 20.40518,27.87324 -1.40247,1.02672 -20.40518,-27.87326 z" />
  <path
     id="rect935"
     style="display:inline;fill:#6c5353;fill-opacity:1;fill-rule:evenodd;stroke-width:0.313022;stroke-linecap:round;stroke-linejoin:round"
     d="m 299.60745,259.7609 -20.40518,27.87326 1.40247,1.02671 20.40518,-27.87325 z" />
  <path
     id="rect913"
     style="display:inline;fill:#2f2823;fill-opacity:1;fill-rule:evenodd;stroke-width:0.0735358;stroke-linecap:round;stroke-linejoin:round"
     d="m 252.10065,259.76089 h 4.75068 v 28.89995 h -4.75068 z" />
  <path
     id="rect917"
     style="display:inline;fill:#6c5353;fill-opacity:1;fill-rule:evenodd;stroke-width:0.313022;stroke-linecap:round;stroke-linejoin:round"
     d="m 256.85132,259.76089 20.40518,27.87325 -1.40246,1.02672 -20.4052,-27.87326 z" />
  <path
     id="rect915"
     style="display:inline;fill:#6c5353;fill-opacity:1;fill-rule:evenodd;stroke-width:0.313022;stroke-linecap:round;stroke-linejoin:round"
     d="m 275.85404,259.76089 -20.4052,27.87325 1.40249,1.02672 20.40517,-27.87326 z" />
  <path
     id="rect893"
     style="display:inline;fill:#2f2823;fill-opacity:1;fill-rule:evenodd;stroke-width:0.0735358;stroke-linecap:round;stroke-linejoin:round"
     d="m 228.34727,259.76089 h 4.75068 v 28.89995 h -4.75068 z" />
  <path
     id="rect911"
     style="display:inline;fill:#6c5353;fill-opacity:1;fill-rule:evenodd;stroke-width:0.313022;stroke-linecap:round;stroke-linejoin:round"
     d="m 233.09792,259.76088 20.40518,27.87324 -1.40247,1.02672 -20.40517,-27.87326 z" />
  <path
     id="rect909"
     style="display:inline;fill:#6c5353;fill-opacity:1;fill-rule:evenodd;stroke-width:0.313022;stroke-linecap:round;stroke-linejoin:round"
     d="m 252.10064,259.76089 -20.40518,27.87325 1.40248,1.02672 20.40518,-27.87326 z" />
  <path
     id="rect887"
     style="display:inline;fill:#2f2823;fill-opacity:1;fill-rule:evenodd;stroke-width:0.0735358;stroke-linecap:round;stroke-linejoin:round"
     d="m 204.59386,259.76089 h 4.75067 v 28.89995 h -4.75067 z" />
  <path
     id="rect891"
     style="display:inline;fill:#6c5353;fill-opacity:1;fill-rule:evenodd;stroke-width:0.313022;stroke-linecap:round;stroke-linejoin:round"
     d="m 209.34453,259.76086 20.40519,27.87328 -1.40246,1.02672 -20.40521,-27.87329 z" />
  <path
     id="rect889"
     style="display:inline;fill:#6c5353;fill-opacity:1;fill-rule:evenodd;stroke-width:0.313022;stroke-linecap:round;stroke-linejoin:round"
     d="m 228.34726,259.76088 -20.4052,27.87326 1.40248,1.0267 20.40518,-27.87324 z" />
  <path
     id="rect857"
     style="display:inline;fill:#2f2823;fill-opacity:1;fill-rule:evenodd;stroke-width:0.0735358;stroke-linecap:round;stroke-linejoin:round"
     d="m 180.84046,259.76086 h 4.75068 v 28.89998 h -4.75068 z" />
  <path
     id="rect885"
     style="display:inline;fill:#6c5353;fill-opacity:1;fill-rule:evenodd;stroke-width:0.313022;stroke-linecap:round;stroke-linejoin:round"
     d="m 185.59116,259.76088 20.40516,27.87326 -1.40247,1.0267 -20.40517,-27.87324 z" />
  <path
     id="rect883"
     style="display:inline;fill:#6c5353;fill-opacity:1;fill-rule:evenodd;stroke-width:0.313022;stroke-linecap:round;stroke-linejoin:round"
     d="m 204.59383,259.76086 -20.40516,27.87326 1.40246,1.02671 20.40518,-27.87326 z" />
  <path
     id="rect853"
     style="display:inline;fill:#2f2823;fill-opacity:1;fill-rule:evenodd;stroke-width:0.0735358;stroke-linecap:round;stroke-linejoin:round"
     d="m 157.08705,259.76086 h 4.75067 v 28.89998 h -4.75067 z" />
  <path
     id="rect875"
     style="display:inline;fill:#6c5353;fill-opacity:1;fill-rule:evenodd;stroke-width:0.313022;stroke-linecap:round;stroke-linejoin:round"
     d="m 161.83773,259.76085 20.40518,27.87326 -1.40246,1.02671 -20.40519,-27.87326 z" />
  <path
     id="rect855"
     style="display:inline;fill:#6c5353;fill-opacity:1;fill-rule:evenodd;stroke-width:0.313022;stroke-linecap:round;stroke-linejoin:round"
     d="m 180.84045,259.76086 -20.40519,27.87326 1.40247,1.02671 20.40518,-27.87326 z" />
  <path
     id="rect848"
     style="display:inline;fill:#552200;fill-rule:evenodd;stroke-width:0.0790987;stroke-linecap:round;stroke-linejoin:round"
     d="m 143.14269,252.61495 h 364.41673 v 8.90751 H 143.14269 Z" />
  <path
     id="path1753"
     style="fill:#aa0000;fill-rule:evenodd;stroke-width:0.0871069;stroke-linecap:round;stroke-linejoin:round"
     d="m 369.56334,218.17511 a 3.8981329,7.0042146 73.85598 0 1 -5.50889,5.72055 3.8981329,7.0042146 73.85598 0 1 -7.90769,-1.69672 3.8981329,7.0042146 73.85598 0 1 5.50213,-5.722 3.8981329,7.0042146 73.85598 0 1 7.91238,1.69183" />
  <g
     id="g2170"
     transform="matrix(0.02693725,0,0,0.02693725,359.36931,215.99256)"
     style="fill:#ffffff">
    <path
       id="path1919"
       d="m 126.90625,32.375 c -12.36048,10e-7 -22.37872,9.64618 -22.375,21.53125 -0.004,11.88507 10.01452,21.53125 22.375,21.53125 12.36047,3e-6 22.37872,-9.64618 22.375,-21.53125 0.004,-11.88507 -10.01453,-21.53125 -22.375,-21.53125 z m -0.5,10.46875 c 6.00023,0 10.87681,4.668052 10.875,10.4375 0.002,5.76946 -4.87477,10.437501 -10.875,10.4375 -6.00023,0 -10.8768,-4.668038 -10.875,-10.4375 -0.002,-5.76945 4.87477,-10.437499 10.875,-10.4375 z"
       style="fill:#ffffff;fill-opacity:1;fill-rule:nonzero;stroke:none;stroke-width:10;stroke-miterlimit:4;stroke-dasharray:none;stroke-opacity:1" />
    <path
       d="m 118.53707,71.17919 c -1.05318,-0.01862 0,2.07487 0,9.08423 v 9.08423 L 96.656304,89.04202 c -17.202677,-0.24028 -22.226961,-0.01831 -23.5,1.03822 -2.035728,1.6895 -2.355871,13.07795 -0.36923,13.13459 l 44.749996,-0.10442 c 0.0502,10.68935 0.18919,21.37955 0.0528,32.06878 -0.50445,22.08005 -0.89167,44.16191 -1.09699,66.24683 -0.0907,11.96075 -0.54567,23.43575 -1.011,25.5 -1.75387,7.78032 -6.6609,8.83712 -21.784616,4.69165 -15.728241,-4.31117 -35.263804,-13.89536 -38.551913,-18.91365 -2.614006,-3.98948 -3.02199,-7.41014 -1.132792,-9.49769 0.941862,-1.04074 2.342299,-1.65058 3.112082,-1.35518 0.851143,0.32661 1.746165,-0.38559 2.283985,-1.81744 1.893166,-5.04024 -4.425697,-12.48968 -16.871502,-19.89015 -3.025,-1.79872 -7.975,-5.66156 -11,-8.58411 -3.173962,-3.06645 -5.973181,-5.01059 -6.618855,-4.59698 -2.009077,1.28699 -6.119771,10.58346 -7.382828,16.69651 -2.539102,12.28898 0.682204,30.42178 6.668262,37.53581 3.159917,3.75535 4.922682,3.7881 5.659272,0.10514 1.297883,-6.48941 9.375086,-4.61753 18.174149,4.21184 6.963913,6.9879 20.224588,17.11783 26,19.86159 2.2,1.04517 5.35,2.74447 7,3.77621 1.65,1.03175 6.6,3.1072 11,4.61211 9.217926,3.15277 20.012466,8.73476 24.286706,12.55895 1.62377,1.4528 4.07609,3.37779 5.44961,4.27775 2.40267,1.57429 2.56162,1.53814 4.1946,-0.9541 3.39955,-5.18837 9.26326,-9.72836 18.14591,-14.04949 4.99226,-2.42858 9.82693,-4.4156 10.74373,-4.4156 1.94871,0 18.39391,-7.2755 28.30068,-12.52046 7.76319,-4.11009 11.26027,-6.58751 19.93314,-14.12117 9.79136,-8.50524 14.74544,-9.46592 19.88407,-3.85585 l 3.20818,3.50253 2.05971,-2.25253 c 3.72664,-4.07549 5.09818,-8.17305 5.81873,-17.38378 0.55098,-7.04321 0.31735,-10.86704 -1.03741,-16.97956 -2.14072,-9.65872 -5.73012,-17.91339 -8.41388,-19.34969 -1.6945,-0.90688 -2.27129,-0.64424 -3.7194,1.6936 -2.51789,4.0649 -6.03622,7.26168 -12.81202,11.64109 -8.11322,5.24383 -13.00914,10.64971 -14.51451,16.02633 -1.45411,5.19359 -0.79213,7.07889 1.9671,5.60219 3.00999,-1.61089 4.971,-1.17154 6.13062,1.37356 1.63265,3.58327 -0.81998,6.46569 -10.29975,12.10467 -16.19084,9.63101 -37.90007,17.51907 -48.21532,17.51907 -4.86756,0 -9.43855,-1.88286 -10.17063,-4.18944 -0.35301,-1.11225 -0.37114,-14.23714 -0.0403,-29.16642 0.33085,-14.92928 0.86611,-42.66403 1.18946,-61.63279 0.32336,-18.96876 0.73947,-34.73387 0.9247,-35.03359 0.18523,-0.29971 10.49723,-0.45027 22.91554,-0.33459 25.76464,0.24002 24.4093,0.72417 24.19598,-8.64317 l -0.12526,-5.5 c -15.38666,-1.07881 -31.13789,0.94184 -46.4599,-1.12656 -0.2892,-0.2892 -0.59164,-3.85321 -0.67208,-7.92003 l -0.14626,-9.16666 z"
       style="fill:#ffffff"
       id="path1881" />
  </g>
</svg>
