<?xml version="1.0" encoding="UTF-8" standalone="no"?>
<svg
   xmlns:dc="http://purl.org/dc/elements/1.1/"
   xmlns:cc="http://creativecommons.org/ns#"
   xmlns:rdf="http://www.w3.org/1999/02/22-rdf-syntax-ns#"
   xmlns:svg="http://www.w3.org/2000/svg"
   xmlns="http://www.w3.org/2000/svg"
   xmlns:sodipodi="http://sodipodi.sourceforge.net/DTD/sodipodi-0.dtd"
   xmlns:inkscape="http://www.inkscape.org/namespaces/inkscape"
   width="1920"
   height="1080"
   viewBox="0 0 507.99999 285.75001"
   version="1.1"
   id="svg8"
   inkscape:version="1.0.1 (3bc2e813f5, 2020-09-07)"
   sodipodi:docname="boat.svg">
  <defs
     id="defs2" />
  <sodipodi:namedview
     id="base"
     pagecolor="#ffffff"
     bordercolor="#666666"
     borderopacity="1.0"
     inkscape:pageopacity="0.0"
     inkscape:pageshadow="2"
     inkscape:zoom="1.4"
     inkscape:cx="1016.0752"
     inkscape:cy="743.2774"
     inkscape:document-units="mm"
     inkscape:current-layer="layer2"
     inkscape:document-rotation="0"
     showgrid="false"
     units="px"
     inkscape:pagecheckerboard="true"
     showguides="true"
     inkscape:guide-bbox="true"
     inkscape:window-width="1920"
     inkscape:window-height="1017"
     inkscape:window-x="1912"
     inkscape:window-y="-8"
     inkscape:window-maximized="1">
    <sodipodi:guide
       position="314.85416,40.82143"
       orientation="0,-1"
       id="guide913" />
    <sodipodi:guide
       position="250.45647,69.500374"
       orientation="0,-1"
       id="guide929" />
  </sodipodi:namedview>
  <metadata
     id="metadata5">
    <rdf:RDF>
      <cc:Work
         rdf:about="">
        <dc:format>image/svg+xml</dc:format>
        <dc:type
           rdf:resource="http://purl.org/dc/dcmitype/StillImage" />
        <dc:title></dc:title>
      </cc:Work>
    </rdf:RDF>
  </metadata>
  <g
     inkscape:groupmode="layer"
     id="layer2"
     inkscape:label="Ship">
    <g
       inkscape:groupmode="layer"
       id="layer6"
       inkscape:label="Mast">
      <rect
         style="fill:#6c5353;stroke-width:0.70931"
         id="rect921"
         width="2.3623433"
         height="130.11829"
         x="249.1808"
         y="125.29909" />
      <path
         style="fill:#6c4f27;stroke:none;stroke-width:0.264583px;stroke-linecap:butt;stroke-linejoin:miter;stroke-opacity:1;fill-opacity:1"
         d="m 258.15487,208.21471 c 0,0 0.55837,8.01261 -2.27645,8.01054 l -11.08634,-0.008 c -3.04428,-0.002 -2.60719,-8.03298 -2.60719,-8.03298 l 15.96998,0.0304 z"
         id="path927"
         sodipodi:nodetypes="cssccc" />
    </g>
    <g
       inkscape:groupmode="layer"
       id="layer5"
       inkscape:label="Ball">
      <path
         style="fill:#b3b3b3;stroke-width:0.695"
         id="path874"
         sodipodi:type="arc"
         sodipodi:cx="256.75739"
         sodipodi:cy="85.542366"
         sodipodi:rx="5.2746038"
         sodipodi:ry="5.5498953"
         sodipodi:start="0"
         sodipodi:end="6.2745946"
         sodipodi:arc-type="arc"
         d="m 262.03199,85.542366 a 5.2746038,5.5498953 0 0 1 -5.26328,5.549883 5.2746038,5.5498953 0 0 1 -5.28588,-5.526044 5.2746038,5.5498953 0 0 1 5.24057,-5.573619 5.2746038,5.5498953 0 0 1 5.30839,5.502103"
         sodipodi:open="true" />
    </g>
    <g
       inkscape:groupmode="layer"
       id="layer4"
       inkscape:label="Arms"
       style="display:inline">
      <rect
         style="fill:#b3b3b3;stroke-width:0.788982"
         id="rect850"
         width="3.7074993"
         height="169.75282"
         x="290.38715"
         y="-125.89659"
         transform="matrix(0.71871385,0.69530598,-0.38167929,0.92429483,0,0)" />
      <rect
         style="fill:#b3b3b3;stroke-width:0.788982"
         id="rect852"
         width="3.7074993"
         height="169.75282"
         x="-220.14903"
         y="258.15714"
         transform="matrix(-0.71871385,0.69530598,0.38167929,0.92429483,0,0)" />
      <rect
         style="fill:#b3b3b3;stroke-width:0.687717"
         id="rect878"
         width="109.75233"
         height="3.7383168"
         x="151.15237"
         y="262.70291"
         transform="matrix(0.97991774,-0.19940221,0.19085061,0.98161909,0,0)" />
      <rect
         style="fill:#b3b3b3;stroke-width:0.533126"
         id="rect878-0"
         width="80.266907"
         height="3.0717969"
         x="178.06551"
         y="235.46709"
         transform="matrix(0.97436914,-0.22495505,0.16890164,0.9856329,0,0)" />
      <rect
         style="fill:#b3b3b3;stroke-width:0.358995"
         id="rect878-0-1"
         width="51.785351"
         height="2.1589451"
         x="202.95258"
         y="208.15607"
         transform="matrix(0.96935663,-0.24565771,0.15424648,0.9880324,0,0)" />
    </g>
    <g
       inkscape:groupmode="layer"
       id="layer3"
       inkscape:label="Body"
       style="opacity:1">
      <path
         id="path848"
         style="fill:#502d16;stroke-width:3.50582"
         d="m 1215.1973,913.52539 0.1035,2.79883 -10.0703,9.74219 h -12.2403 l -4.041,15.90039 -29.7988,1.51562 v 38.38672 h -16.668 v -38.38672 l -28.2832,2.52539 v 39.90039 h -19.1933 v -37.88086 l -28.7891,3.53711 v 39.90039 h -16.668 v -36.36523 l -30.4414,2.04297 v 35 h -16.9648 V 958.57227 L 972.5,960.53516 V 998.75 h -18.21484 v -37.14258 h -16.25 v 31.60742 h -17.67774 v -36.07226 l -28.92969,-3.21485 v 36.60743 h -17.85546 v -38.21289 l -29.64454,-2.85743 v 36.25 h -16.78515 v -37.5 l -30,-3.21484 v 36.07227 H 779.10742 V 942.5 h -17.95703 l -5.05078,-16.78516 h -17.17383 l -13.38476,-9.39062 c 0,0 -61.26964,-0.68008 -75.1875,-0.57813 3.14782,67.49386 146.16366,121.39631 320.47656,120.78711 174.31342,-0.6092 314.79402,-55.50273 314.79492,-123.00781 z"
         transform="scale(0.26458333)"
         sodipodi:nodetypes="ccccccccccccccccccccccccccccccccccccccccccccccscc" />
    </g>
  </g>
</svg>
