<?xml version="1.0" encoding="UTF-8" standalone="no"?>
<svg
   xmlns:dc="http://purl.org/dc/elements/1.1/"
   xmlns:cc="http://creativecommons.org/ns#"
   xmlns:rdf="http://www.w3.org/1999/02/22-rdf-syntax-ns#"
   xmlns:svg="http://www.w3.org/2000/svg"
   xmlns="http://www.w3.org/2000/svg"
   xmlns:sodipodi="http://sodipodi.sourceforge.net/DTD/sodipodi-0.dtd"
   xmlns:inkscape="http://www.inkscape.org/namespaces/inkscape"
   width="1920"
   height="1080"
   viewBox="0 0 507.99999 285.75001"
   version="1.1"
   id="svg8"
   inkscape:version="1.0.1 (3bc2e813f5, 2020-09-07)"
   sodipodi:docname="support.svg">
  <defs
     id="defs2" />
  <sodipodi:namedview
     id="base"
     pagecolor="#ffffff"
     bordercolor="#666666"
     borderopacity="1.0"
     inkscape:pageopacity="0.0"
     inkscape:pageshadow="2"
     inkscape:zoom="1.979899"
     inkscape:cx="945.85749"
     inkscape:cy="415.13511"
     inkscape:document-units="mm"
     inkscape:current-layer="layer7"
     inkscape:document-rotation="0"
     showgrid="false"
     units="px"
     inkscape:pagecheckerboard="true"
     showguides="true"
     inkscape:guide-bbox="true"
     inkscape:window-width="1920"
     inkscape:window-height="1017"
     inkscape:window-x="-8"
     inkscape:window-y="-8"
     inkscape:window-maximized="1">
    <sodipodi:guide
       position="314.85416,40.82143"
       orientation="0,-1"
       id="guide913" />
    <sodipodi:guide
       position="250.45647,69.500374"
       orientation="0,-1"
       id="guide929" />
    <sodipodi:guide
       position="256.84601,190.33479"
       orientation="1,0"
       id="guide845" />
  </sodipodi:namedview>
  <metadata
     id="metadata5">
    <rdf:RDF>
      <cc:Work
         rdf:about="">
        <dc:format>image/svg+xml</dc:format>
        <dc:type
           rdf:resource="http://purl.org/dc/dcmitype/StillImage" />
        <dc:title />
      </cc:Work>
    </rdf:RDF>
  </metadata>
  <g
     inkscape:groupmode="layer"
     id="layer7"
     inkscape:label="Support">
    <path
       id="rect935"
       style="fill:#666666;fill-opacity:1;stroke:none;stroke-width:0.697725"
       transform="matrix(0.85561379,-0.51761475,0.40802433,0.91297106,0,0)"
       d="m 197.00499,214.28378 h 7.16165 l -1.39458,211.16188 -5.76707,-3.27177 z"
       sodipodi:nodetypes="ccccc" />
    <path
       style="fill:#666666;fill-opacity:1;stroke:none;stroke-width:0.695"
       id="path940"
       sodipodi:type="arc"
       sodipodi:cx="256.75739"
       sodipodi:cy="85.542351"
       sodipodi:rx="9.7158298"
       sodipodi:ry="10.085626"
       sodipodi:start="0"
       sodipodi:end="6.2823395"
       sodipodi:arc-type="arc"
       d="m 266.47322,85.542351 a 9.7158298,10.085626 0 0 1 -9.71378,10.085625 9.7158298,10.085626 0 0 1 -9.71788,-10.08136 9.7158298,10.085626 0 0 1 9.70966,-10.089889 9.7158298,10.085626 0 0 1 9.72199,10.077093"
       sodipodi:open="true" />
    <path
       id="path944"
       style="fill:#666666;fill-opacity:1;stroke:none;stroke-width:0.695051"
       d="m 257.93088,93.996288 -6.12761,-3.706976 -84.96596,193.506548 6.26935,-0.002 z"
       sodipodi:nodetypes="ccccc" />
    <path
       id="path1753"
       style="fill:#aa0000;fill-rule:evenodd;stroke-width:0.264999;stroke-linecap:round;stroke-linejoin:round"
       d="m 277.48074,80.015447 a 11.859003,21.308407 73.85598 0 1 -16.75929,17.403207 11.859003,21.308407 73.85598 0 1 -24.05698,-5.161814 11.859003,21.308407 73.85598 0 1 16.73872,-17.407623 11.859003,21.308407 73.85598 0 1 24.07128,5.14693" />
    <rect
       style="fill:#333333;fill-opacity:1;stroke:none;stroke-width:0.96986"
       id="rect933"
       width="11.43378"
       height="3.4962797"
       x="338.19421"
       y="282.91516" />
    <rect
       style="fill:#333333;fill-opacity:1;stroke:none;stroke-width:0.96986"
       id="rect947"
       width="11.43378"
       height="3.4962797"
       x="-175.69208"
       y="283.23364"
       transform="scale(-1,1)" />
    <path
       id="path857"
       style="fill:#d3bc5f;fill-opacity:1;stroke:none;stroke-width:0.999999px;stroke-linecap:butt;stroke-linejoin:miter;stroke-opacity:1"
       d="m 770.5625,1003.8398 0.18359,51.0118 h 200.00977 200.01174 l 0.1836,-51.0118 h -83.0215 v 16.1622 H 970.75586 868.22656 v -16.1622 z"
       transform="scale(0.26458333)" />
    <g
       id="g2170"
       transform="matrix(0.08194923,0,0,0.08194923,246.46822,73.375635)"
       style="fill:#ffffff">
      <path
         id="path1919"
         d="m 126.90625,32.375 c -12.36048,10e-7 -22.37872,9.64618 -22.375,21.53125 -0.004,11.88507 10.01452,21.53125 22.375,21.53125 12.36047,3e-6 22.37872,-9.64618 22.375,-21.53125 0.004,-11.88507 -10.01453,-21.53125 -22.375,-21.53125 z m -0.5,10.46875 c 6.00023,0 10.87681,4.668052 10.875,10.4375 0.002,5.76946 -4.87477,10.437501 -10.875,10.4375 -6.00023,0 -10.8768,-4.668038 -10.875,-10.4375 -0.002,-5.76945 4.87477,-10.437499 10.875,-10.4375 z"
         style="fill:#ffffff;fill-opacity:1;fill-rule:nonzero;stroke:none;stroke-width:10;stroke-miterlimit:4;stroke-dasharray:none;stroke-opacity:1" />
      <path
         d="m 118.53707,71.17919 c -1.05318,-0.01862 0,2.07487 0,9.08423 v 9.08423 L 96.656304,89.04202 c -17.202677,-0.24028 -22.226961,-0.01831 -23.5,1.03822 -2.035728,1.6895 -2.355871,13.07795 -0.36923,13.13459 l 44.749996,-0.10442 c 0.0502,10.68935 0.18919,21.37955 0.0528,32.06878 -0.50445,22.08005 -0.89167,44.16191 -1.09699,66.24683 -0.0907,11.96075 -0.54567,23.43575 -1.011,25.5 -1.75387,7.78032 -6.6609,8.83712 -21.784616,4.69165 -15.728241,-4.31117 -35.263804,-13.89536 -38.551913,-18.91365 -2.614006,-3.98948 -3.02199,-7.41014 -1.132792,-9.49769 0.941862,-1.04074 2.342299,-1.65058 3.112082,-1.35518 0.851143,0.32661 1.746165,-0.38559 2.283985,-1.81744 1.893166,-5.04024 -4.425697,-12.48968 -16.871502,-19.89015 -3.025,-1.79872 -7.975,-5.66156 -11,-8.58411 -3.173962,-3.06645 -5.973181,-5.01059 -6.618855,-4.59698 -2.009077,1.28699 -6.119771,10.58346 -7.382828,16.69651 -2.539102,12.28898 0.682204,30.42178 6.668262,37.53581 3.159917,3.75535 4.922682,3.7881 5.659272,0.10514 1.297883,-6.48941 9.375086,-4.61753 18.174149,4.21184 6.963913,6.9879 20.224588,17.11783 26,19.86159 2.2,1.04517 5.35,2.74447 7,3.77621 1.65,1.03175 6.6,3.1072 11,4.61211 9.217926,3.15277 20.012466,8.73476 24.286706,12.55895 1.62377,1.4528 4.07609,3.37779 5.44961,4.27775 2.40267,1.57429 2.56162,1.53814 4.1946,-0.9541 3.39955,-5.18837 9.26326,-9.72836 18.14591,-14.04949 4.99226,-2.42858 9.82693,-4.4156 10.74373,-4.4156 1.94871,0 18.39391,-7.2755 28.30068,-12.52046 7.76319,-4.11009 11.26027,-6.58751 19.93314,-14.12117 9.79136,-8.50524 14.74544,-9.46592 19.88407,-3.85585 l 3.20818,3.50253 2.05971,-2.25253 c 3.72664,-4.07549 5.09818,-8.17305 5.81873,-17.38378 0.55098,-7.04321 0.31735,-10.86704 -1.03741,-16.97956 -2.14072,-9.65872 -5.73012,-17.91339 -8.41388,-19.34969 -1.6945,-0.90688 -2.27129,-0.64424 -3.7194,1.6936 -2.51789,4.0649 -6.03622,7.26168 -12.81202,11.64109 -8.11322,5.24383 -13.00914,10.64971 -14.51451,16.02633 -1.45411,5.19359 -0.79213,7.07889 1.9671,5.60219 3.00999,-1.61089 4.971,-1.17154 6.13062,1.37356 1.63265,3.58327 -0.81998,6.46569 -10.29975,12.10467 -16.19084,9.63101 -37.90007,17.51907 -48.21532,17.51907 -4.86756,0 -9.43855,-1.88286 -10.17063,-4.18944 -0.35301,-1.11225 -0.37114,-14.23714 -0.0403,-29.16642 0.33085,-14.92928 0.86611,-42.66403 1.18946,-61.63279 0.32336,-18.96876 0.73947,-34.73387 0.9247,-35.03359 0.18523,-0.29971 10.49723,-0.45027 22.91554,-0.33459 25.76464,0.24002 24.4093,0.72417 24.19598,-8.64317 l -0.12526,-5.5 c -15.38666,-1.07881 -31.13789,0.94184 -46.4599,-1.12656 -0.2892,-0.2892 -0.59164,-3.85321 -0.67208,-7.92003 l -0.14626,-9.16666 z"
         style="fill:#ffffff"
         id="path1881" />
    </g>
  </g>
</svg>
